# xmcd
#
# Track frame offsets:
#	150
#	13197
#	25332
#	38650
#	51092
#	65145
#	77190
#	88557
#	100445
#	115317
#	130725
#	146772
#	163347
#	177660
#
# Disc length: 2576 seconds
#
# Revision: 1
# Processed by: cddbd v1.5.1PL0 Copyright (c) Steve Scherf et al.
# Submitted via: CDex 1.50Beta5
#
DISCID=ca0a0e0e
DTITLE=赤い鳥 - シングルズ Disc 1
DYEAR=1999
DGENRE=
TTITLE0=人生
TTITLE1=赤い花 白い花
TTITLE2=誰のために
TTITLE3=小さな歴史
TTITLE4=竹田の子守唄
TTITLE5=翼をください
TTITLE6=忘れていた朝
TTITLE7=言葉にならない言葉
TTITLE8=河
TTITLE9=旅
TTITLE10=赤い屋根の家
TTITLE11=どこに帰ろう
TTITLE12=二人
TTITLE13=鳥のように
EXTD=
EXTT0=
EXTT1=
EXTT2=
EXTT3=
EXTT4=
EXTT5=
EXTT6=
EXTT7=
EXTT8=
EXTT9=
EXTT10=
EXTT11=
EXTT12=
EXTT13=
PLAYORDER=
